<svg xmlns="http://www.w3.org/2000/svg" width="640" height="400" viewBox="0 0 640 400">
  <defs>
    <linearGradient id="bg-warm" x1="0" y1="0" x2="1" y2="1">
      <stop offset="0%" stop-color="#FBF6F0"/>
      <stop offset="100%" stop-color="#F8F0E6"/>
    </linearGradient>
  </defs>
  <rect width="640" height="400" fill="url(#bg-warm)"/>
  <g opacity="0.15">
    <circle cx="60" cy="60" r="3" fill="#B0892F"/>
    <circle cx="90" cy="70" r="2.5" fill="#C9A84A"/>
    <circle cx="75" cy="95" r="2" fill="#B0892F"/>
    <circle cx="580" cy="340" r="3" fill="#B0892F"/>
    <circle cx="550" cy="350" r="2.5" fill="#C9A84A"/>
    <circle cx="570" cy="310" r="2" fill="#B0892F"/>
  </g>
  <rect x="80" y="40" width="480" height="320" rx="20" fill="#fff" stroke="#d4c5b0" stroke-width="2"/>
  <rect x="80" y="40" width="480" height="6" rx="3" fill="#B0892F"/>
  <g transform="translate(320, 130)">
    <circle cx="0" cy="0" r="70" fill="none" stroke="#B0892F" stroke-width="1.5" opacity="0.3"/>
    <circle cx="0" cy="0" r="50" fill="none" stroke="#C9A84A" stroke-width="1" opacity="0.4"/>
    <ellipse cx="0" cy="8" rx="35" ry="15" fill="#3E2B25" opacity="0.9"/>
    <path d="M -35 8 Q -30 -15 0 -20 Q 30 -15 35 8" fill="#3E2B25" stroke="#C9A84A" stroke-width="1.5"/>
    <circle cx="-18" cy="5" r="4" fill="#C9A84A" opacity="0.8"/>
    <circle cx="-5" cy="0" r="3.5" fill="#B0892F" opacity="0.7"/>
    <circle cx="8" cy="6" r="4" fill="#C9A84A" opacity="0.75"/>
    <circle cx="22" cy="2" r="3" fill="#B0892F" opacity="0.8"/>
    <circle cx="0" cy="12" r="3.5" fill="#8b6f5f" opacity="0.6"/>
    <circle cx="0" cy="-50" r="3" fill="#B0892F" opacity="0.4"/>
    <circle cx="40" cy="-20" r="3" fill="#C9A84A" opacity="0.4"/>
    <circle cx="40" cy="30" r="3" fill="#B0892F" opacity="0.4"/>
    <circle cx="0" cy="50" r="3" fill="#C9A84A" opacity="0.4"/>
    <circle cx="-40" cy="30" r="3" fill="#B0892F" opacity="0.4"/>
    <circle cx="-40" cy="-20" r="3" fill="#C9A84A" opacity="0.4"/>
  </g>
  <text x="320" y="280" font-family="Playfair Display, serif" font-size="28" font-weight="700" text-anchor="middle" fill="#3E2B25">Masala Heritage</text>
  <text x="320" y="310" font-family="Montserrat, sans-serif" font-size="14" text-anchor="middle" fill="#8b6f5f">Spiced to Tradition</text>
</svg>
